{"title":"Cardinal Burns S02E01 &amp; 2 (Comedy)","uid":9798579,"size":283533892,"categoryP":"video","categoryS":"tv_shows","magnet":"?xt=urn:btih:49c0de5bff92e4ffe8e1173bce14025ca9893955&amp;dn=Cardinal+Burns+S02E01+%26amp%3B+2+%28Comedy%29&amp;tr=udp%3A%2F%2Ftracker.openbittorrent.com%3A80&amp;tr=udp%3A%2F%2Fopen.demonii.com%3A1337&amp;tr=udp%3A%2F%2Ftracker.coppersurfer.tk%3A6969&amp;tr=udp%3A%2F%2Fexodus.desync.com%3A6969","seeders":1,"leechers":1,"uploader":"Pyre8Storm","files":-1,"time":1395351303,"description":"Cardinal Burns is a British television sketch show starring Seb Cardinal and Dustin Demri-Burns, shown on E4. The first series began on 8 May 2012.\n\nThis is the first 2 episodes of season 2. This version is better than the first episode I uploaded a while back; looks like no-one else is going to up these episodes, so I may as well get them out.\n\nWiki:\n &lt;a href=&quot;\nhttp://en.wikipedia.org/wiki/Cardinal_Burns&quot; rel=&quot;nofollow&quot; target=&quot;_NEW&quot;&gt;\nhttp://en.wikipedia.org/wiki/Cardinal_Burns&lt;/a&gt;\n\nScreens:\n &lt;a href=&quot;\nhttp://bayimg.com/NamcDAaFF&quot; rel=&quot;nofollow&quot; target=&quot;_NEW&quot;&gt;\nhttp://bayimg.com/NamcDAaFF&lt;/a&gt;\n\n\n\nFormat                                   : MPEG-4\nFormat profile                           : Base Media\nCodec ID                                 : isom\nFile size                                : 142 MiB\nDuration                                 : 24mn 59s\nOverall bit rate mode                    : Variable\nOverall bit rate                         : 792 Kbps\nWriting application                      : DigiArty AV Encoder Core\n\nVideo\nID                                       : 1\nFormat                                   : AVC\nFormat/Info                              : Advanced Video Codec\nFormat profile                           : &lt;a class=&quot;__cf_email__&quot; href=&quot;/cdn-cgi/l/email-protection&quot; data-cfemail=&quot;0c44656b644c4038223d&quot;&gt;[email&amp;#160;protected]&lt;/a&gt;&lt;script cf-hash='f9e31' type=&quot;text/javascript&quot;&gt;\n/* &lt;![CDATA[ */!function(){try{var t=&quot;currentScript&quot;in document?document.currentScript:function(){for(var t=document.getElementsByTagName(&quot;script&quot;),e=t.length;e--;)if(t[e].getAttribute(&quot;cf-hash&quot;))return t[e]}();if(t&amp;&amp;t.previousSibling){var e,r,n,i,c=t.previousSibling,a=c.getAttribute(&quot;data-cfemail&quot;);if(a){for(e=&quot;&quot;,r=parseInt(a.substr(0,2),16),n=2;a.length-n;n+=2)i=parseInt(a.substr(n,2),16)^r,e+=String.fromCharCode(i);e=document.createTextNode(e),c.parentNode.replaceChild(e,c)}}}catch(u){}}();/* ]]&gt; */&lt;/script&gt;\nFormat settings, CABAC                   : Yes\nFormat settings, ReFrames                : 4 frames\nCodec ID                                 : avc1\nCodec ID/Info                            : Advanced Video Coding\nDuration                                 : 24mn 59s\nBit rate                                 : 660 Kbps\nWidth                                    : 720 pixels\nHeight                                   : 480 pixels\nDisplay aspect ratio                     : 16:9\nFrame rate mode                          : Constant\nFrame rate                               : 25.000 fps\nStandard                                 : NTSC\nColor space                              : YUV\nChroma subsampling                       : 4:2:0\nBit depth                                : 8 bits\nScan type                                : Progressive\nBits/(Pixel*Frame)                       : 0.076\nStream size                              : 118 MiB (83%)\nWriting library                          : x264 core 104\n\nAudio\nID                                       : 2\nFormat                                   : AAC\nFormat/Info                              : Advanced Audio Codec\nFormat profile                           : LC\nCodec ID                                 : 40\nDuration                                 : 24mn 57s\nBit rate mode                            : Variable\nBit rate                                 : 128 Kbps\nChannel count                            : 2 channels\nChannel positions                        : Front: L R\nSampling rate                            : 44.1 KHz\nCompression mode                         : Lossy\nStream size                              : 22.9 MiB (16%)\n\n\nPlease seed for others, I will up S02E03 later.\n\n","torrent":{"xt":"urn:btih:49c0de5bff92e4ffe8e1173bce14025ca9893955","amp;dn":"Cardinal+Burns+S02E01+%26amp%3B+2+%28Comedy%29","amp;tr":["udp%3A%2F%2Ftracker.openbittorrent.com%3A80","udp%3A%2F%2Fopen.demonii.com%3A1337","udp%3A%2F%2Ftracker.coppersurfer.tk%3A6969","udp%3A%2F%2Fexodus.desync.com%3A6969"],"infoHash":"49c0de5bff92e4ffe8e1173bce14025ca9893955","infoHashBuffer":{"type":"Buffer","data":[73,192,222,91,255,146,228,255,232,225,23,59,206,20,2,92,169,137,57,85]},"announce":[],"urlList":[]}}